<svg width="69" height="100" viewBox="0 0 69 100" fill="none" xmlns="http://www.w3.org/2000/svg">
<path d="M48.7672 0H5.65125C2.6376 0 0.194824 2.44277 0.194824 5.45642V73.3207C0.194824 76.3343 2.6376 78.7771 5.65125 78.7771H34.1031V68.5463H10.4256V10.2308H48.7672C53.8526 10.2308 57.9749 14.3531 57.9749 19.4385V59.3386C57.9749 64.424 53.8526 68.5463 48.7672 68.5463H40.5826C39.8292 68.5463 39.2185 69.1571 39.2185 69.9104V77.413C39.2185 78.1667 39.8292 78.7771 40.5826 78.7771H48.7672C59.5027 78.7771 68.2057 70.0744 68.2057 59.3386V19.4385C68.2057 8.703 59.5027 0 48.7672 0Z" fill="white"/>
<path d="M25.3246 98.8624L4.26965 82.7063C1.57793 80.641 0 77.4412 0 74.0487V5.46722C0 0.943161 5.18905 -1.61589 8.77801 1.13824L29.8333 17.2944C32.5247 19.3596 34.1026 22.5595 34.1026 25.952V94.5334C34.1026 99.0575 28.9139 101.617 25.3246 98.8624Z" fill="#00F0B3"/>
</svg>
